<?xml version="1.0" encoding="UTF-8" standalone="no"?>
<!-- Created with Inkscape (http://www.inkscape.org/) -->

<svg
   xmlns:dc="http://purl.org/dc/elements/1.1/"
   xmlns:cc="http://creativecommons.org/ns#"
   xmlns:rdf="http://www.w3.org/1999/02/22-rdf-syntax-ns#"
   xmlns:svg="http://www.w3.org/2000/svg"
   xmlns="http://www.w3.org/2000/svg"
   xmlns:xlink="http://www.w3.org/1999/xlink"
   xmlns:sodipodi="http://sodipodi.sourceforge.net/DTD/sodipodi-0.dtd"
   xmlns:inkscape="http://www.inkscape.org/namespaces/inkscape"
   width="64"
   height="64"
   id="svg2"
   version="1.1"
   inkscape:version="0.47pre2 r22153"
   sodipodi:docname="poussin.svg">
  <sodipodi:namedview
     id="base"
     pagecolor="#ffffff"
     bordercolor="#666666"
     borderopacity="1.0"
     inkscape:pageopacity="0.0"
     inkscape:pageshadow="2"
     inkscape:zoom="7.6562503"
     inkscape:cx="41.085981"
     inkscape:cy="42.182354"
     inkscape:document-units="px"
     inkscape:current-layer="layer2"
     showgrid="false"
     inkscape:window-width="1280"
     inkscape:window-height="739"
     inkscape:window-x="-4"
     inkscape:window-y="-4"
     inkscape:window-maximized="1"
     showguides="true"
     inkscape:guide-bbox="true" />
  <defs
     id="defs4">
    <inkscape:path-effect
       effect="bend_path"
       id="path-effect2871"
       is_visible="true"
       bendpath="m -36.961254,23.89218 c 0,0 2.335537,0 3.503306,0 0.994837,0 2.984511,0 2.984511,0"
       prop_scale="1"
       scale_y_rel="false"
       vertical="false"
       bendpath-nodetypes="csc" />
    <inkscape:path-effect
       effect="bend_path"
       id="path-effect2869"
       is_visible="true"
       bendpath="m -37.817505,23.745394 c 0,0 3.123021,0.420577 4.2617,0.415893 1.031355,-0.0042 3.082368,-0.269107 3.082368,-0.269107"
       prop_scale="1"
       scale_y_rel="false"
       vertical="false"
       bendpath-nodetypes="csc" />
    <inkscape:path-effect
       effect="rough_hatches"
       id="path-effect3723"
       is_visible="true"
       direction="20.636734,6.363265 , 2.2857144,0"
       dist_rdm="75;1"
       growth="0"
       do_bend="true"
       bender="20.636734,11.363265 , 5,0"
       bottom_edge_variation="0.91428576;1"
       top_edge_variation="0.91428576;1"
       bottom_tgt_variation="0;1"
       top_tgt_variation="0;1"
       scale_bf="1"
       scale_bb="1"
       scale_tf="1"
       scale_tb="1"
       top_smth_variation="0;1"
       bottom_smth_variation="0;1"
       fat_output="true"
       stroke_width_top="1"
       stroke_width_bottom="1"
       front_thickness="1"
       back_thickness="0.25" />
    <inkscape:path-effect
       effect="curvestitching"
       id="path-effect3721"
       is_visible="true"
       count="5"
       startpoint_edge_variation="0;1"
       startpoint_spacing_variation="0;1"
       endpoint_edge_variation="0;1"
       endpoint_spacing_variation="0;1"
       strokepath="M 0,0 1,0"
       prop_scale="1"
       scale_y_rel="false" />
    <linearGradient
       id="linearGradient3683">
      <stop
         style="stop-color:#ffc600;stop-opacity:1;"
         offset="0"
         id="stop3685" />
      <stop
         style="stop-color:#fffc00;stop-opacity:1;"
         offset="1"
         id="stop3687" />
    </linearGradient>
    <inkscape:path-effect
       effect="envelope"
       id="path-effect3633"
       is_visible="true"
       yy="true"
       xx="true"
       bendpath1="m 16.425454,1004.1083 32.410399,-5.35667"
       bendpath2="m 46.988717,1004.1083 0,33.0449"
       bendpath3="m 16.425454,1037.1532 30.563263,0"
       bendpath4="m 16.425454,1004.1083 0,33.0449"
       bendpath1-nodetypes="cc" />
    <inkscape:path-effect
       effect="ruler"
       id="path-effect3631"
       is_visible="true"
       unit="px"
       mark_distance="20"
       mark_length="14"
       minor_mark_length="7"
       major_mark_steps="5"
       shift="0"
       offset="0"
       mark_dir="left"
       border_marks="both" />
    <inkscape:path-effect
       effect="vonkoch"
       id="path-effect3629"
       is_visible="true"
       ref_path="m -34.311173,1010.4994 29.5674344,0"
       generator="m -34.311173,1027.5032 9.855812,0 m 9.855811,0 9.8558114,0"
       similar_only="false"
       nbgenerations="1"
       drawall="true"
       maxComplexity="1000" />
    <inkscape:path-effect
       effect="rough_hatches"
       id="path-effect3627"
       is_visible="true"
       direction="-19.828011,1006.0257 , 7.640816,0"
       dist_rdm="75;1"
       growth="0"
       do_bend="true"
       bender="-19.828011,1011.0257 , 5,0"
       bottom_edge_variation="3.304489;1"
       top_edge_variation="3.304489;1"
       bottom_tgt_variation="0;1"
       top_tgt_variation="0;1"
       scale_bf="1"
       scale_bb="1"
       scale_tf="1"
       scale_tb="1"
       top_smth_variation="0;1"
       bottom_smth_variation="0;1"
       fat_output="true"
       stroke_width_top="1"
       stroke_width_bottom="1"
       front_thickness="1"
       back_thickness="0.25" />
    <inkscape:path-effect
       effect="bend_path"
       id="path-effect3625"
       is_visible="true"
       bendpath="m 14.578318,999.94287 -0.09919,5.35673"
       prop_scale="1"
       scale_y_rel="false"
       vertical="false"
       bendpath-nodetypes="cc" />
    <inkscape:path-effect
       effect="envelope"
       id="path-effect3623"
       is_visible="true"
       yy="true"
       xx="true"
       bendpath1="m -31.784798,994.68791 30.5632639,0"
       bendpath2="m -1.2215341,994.68791 0,33.04489"
       bendpath3="m -31.784798,1027.7328 30.5632639,0"
       bendpath4="m -31.784798,994.68791 0,33.04489" />
    <inkscape:path-effect
       effect="sketch"
       id="path-effect3621"
       is_visible="true"
       nbiter_approxstrokes="5"
       strokelength="100"
       strokelength_rdm="0.3;1"
       strokeoverlap="0.3"
       strokeoverlap_rdm="0.3;1"
       ends_tolerance="0.1;1"
       parallel_offset="5;1"
       tremble_size="5;1"
       tremble_frequency="1"
       nbtangents="5"
       tgt_places_rdmness="1;1"
       tgtscale="10"
       tgtlength="100"
       tgtlength_rdm="0.3;1" />
    <inkscape:path-effect
       effect="spiro"
       id="path-effect3619"
       is_visible="true" />
    <inkscape:path-effect
       effect="rough_hatches"
       id="path-effect3617"
       is_visible="true"
       direction="-18.481632,20.27347 , 3.820408,0"
       dist_rdm="75;1"
       growth="0"
       do_bend="true"
       bender="-18.481632,25.27347 , 5,0"
       bottom_edge_variation="1.4497959;1"
       top_edge_variation="1.4497959;1"
       bottom_tgt_variation="0;1"
       top_tgt_variation="0;1"
       scale_bf="1"
       scale_bb="1"
       scale_tf="1"
       scale_tb="1"
       top_smth_variation="0;1"
       bottom_smth_variation="0;1"
       fat_output="true"
       stroke_width_top="1"
       stroke_width_bottom="1"
       front_thickness="1"
       back_thickness="0.25" />
    <linearGradient
       inkscape:collect="always"
       id="linearGradient3629">
      <stop
         style="stop-color:#ffffff;stop-opacity:1;"
         offset="0"
         id="stop3631" />
      <stop
         style="stop-color:#ffffff;stop-opacity:0;"
         offset="1"
         id="stop3633" />
    </linearGradient>
    <linearGradient
       id="linearGradient3615">
      <stop
         style="stop-color:#ffeeaa;stop-opacity:1;"
         offset="0"
         id="stop3617" />
      <stop
         id="stop3625"
         offset="0.62503022"
         style="stop-color:#fce980;stop-opacity:1;" />
      <stop
         style="stop-color:#f9f05b;stop-opacity:1;"
         offset="1"
         id="stop3619" />
    </linearGradient>
    <inkscape:perspective
       sodipodi:type="inkscape:persp3d"
       inkscape:vp_x="0 : 526.18109 : 1"
       inkscape:vp_y="0 : 1000 : 0"
       inkscape:vp_z="744.09448 : 526.18109 : 1"
       inkscape:persp3d-origin="372.04724 : 350.78739 : 1"
       id="perspective10" />
    <radialGradient
       inkscape:collect="always"
       xlink:href="#linearGradient3615"
       id="radialGradient3623"
       cx="31.309582"
       cy="44.206524"
       fx="31.309582"
       fy="44.206524"
       r="16.582262"
       gradientTransform="matrix(0.72335419,-0.73157781,0.90062917,1.06841,-34.869,22.315419)"
       gradientUnits="userSpaceOnUse" />
    <linearGradient
       inkscape:collect="always"
       xlink:href="#linearGradient3629"
       id="linearGradient3635"
       x1="34.803627"
       y1="56.022282"
       x2="31.757399"
       y2="43.752937"
       gradientUnits="userSpaceOnUse" />
    <filter
       inkscape:collect="always"
       id="filter3639"
       x="-0.073018868"
       width="1.1460377"
       y="-0.33652174"
       height="1.6730435">
      <feGaussianBlur
         inkscape:collect="always"
         stdDeviation="1.2636735"
         id="feGaussianBlur3641" />
    </filter>
    <filter
       id="filter2868"
       inkscape:label="Ink bleed"
       inkscape:menu="Protrusions"
       inkscape:menu-tooltip="Inky splotches underneath the object">
      <feGaussianBlur
         id="feGaussianBlur2870"
         result="result1"
         in="SourceGraphic"
         stdDeviation="1.3" />
      <feDisplacementMap
         id="feDisplacementMap2874"
         in2="result1"
         result="result2"
         scale="29.600000000000001"
         yChannelSelector="G"
         xChannelSelector="R"
         in="result1" />
      <feColorMatrix
         id="feColorMatrix2876"
         values="2 0 0 0 0 0 2 0 0 0 0 0 2 0 0 0 0 0 0.7 0"
         result="result3" />
      <feGaussianBlur
         id="feGaussianBlur2878"
         result="result4"
         in="SourceGraphic"
         stdDeviation="1.01" />
      <feComposite
         id="feComposite2880"
         in2="result3"
         in="result4" />
    </filter>
    <linearGradient
       inkscape:collect="always"
       xlink:href="#linearGradient3683"
       id="linearGradient4986"
       gradientUnits="userSpaceOnUse"
       x1="37.260803"
       y1="12.112368"
       x2="33.764668"
       y2="11.100122" />
  </defs>
  <metadata
     id="metadata7">
    <rdf:RDF>
      <cc:Work
         rdf:about="">
        <dc:format>image/svg+xml</dc:format>
        <dc:type
           rdf:resource="http://purl.org/dc/dcmitype/StillImage" />
        <dc:title />
      </cc:Work>
    </rdf:RDF>
  </metadata>
  <g
     inkscape:groupmode="layer"
     id="layer2"
     inkscape:label="Background"
     sodipodi:insensitive="true"
     style="display:none">
    <path
       sodipodi:type="arc"
       style="fill:#ffffff;stroke:none"
       id="path2837"
       sodipodi:cx="24.09796"
       sodipodi:cy="33.17551"
       sodipodi:rx="16.130611"
       sodipodi:ry="21.681633"
       d="m 40.228571,33.17551 a 16.130611,21.681633 0 1 1 -32.2612229,0 16.130611,21.681633 0 1 1 32.2612229,0 z"
       transform="matrix(1.1586251,0,0,1.0577723,4.0794992,-0.08806)" />
  </g>
  <g
     inkscape:groupmode="layer"
     id="layer4"
     inkscape:label="egg_back"
     sodipodi:insensitive="true">
    <path
       transform="matrix(1.1586251,0,0,1.0577723,4.0794992,-0.08806)"
       style="fill:#fafafa;fill-opacity:1;stroke:#000000;stroke-width:0.67747569;stroke-linecap:butt;stroke-linejoin:miter;stroke-miterlimit:4;stroke-opacity:1;display:inline"
       d="m 40.228571,33.175513 c 0,11.974436 -7.221921,21.68163 -16.130611,21.68163 -8.908691,0 -16.1306119,-9.707197 -16.1306119,-21.681633 0,-3.376273 0.5741399,-6.572302 1.5983471,-9.421316 0.6914708,-1.942108 1.3038958,-2.612305 2.6206548,-3.488245 0.636259,1.173717 2.430143,2.658701 2.430143,2.658701 0,0 4.178275,0.725884 4.178275,0.725884 0,0 3.363989,-1.942726 5.390737,-4.179027 0.859746,2.002997 4.215758,4.373965 4.215758,4.373965 0,0 2.081949,-1.105432 3.57033,-2.618831 0.740367,1.209698 1.941087,1.982868 2.678299,2.442691 0.66573,0.06378 1.160987,0.270696 3.920695,-0.07925 1.061531,2.89017 1.657984,6.144176 1.657984,9.585431 z"
       id="path3643"
       sodipodi:nodetypes="csscccccccccc" />
  </g>
  <g
     inkscape:groupmode="layer"
     id="layer3"
     inkscape:label="chick"
     style="display:inline">
    <path
       style="fill:#ffff00;fill-opacity:1;stroke:#000000;stroke-width:0.75;stroke-miterlimit:4;stroke-dasharray:none"
       d="m 35.8125,2.2701044 c -5.638621,0 -9.503585,4.3590528 -10.03125,9.7499996 -0.12274,1.254005 -0.06055,2.461116 0.1875,3.5625 -1.854473,1.300136 -3.48724,2.858908 -4.90625,4.5625 -1.433343,1.7207 -2.663539,3.607 -3.53125,5.625 -0.867711,2.0181 -1.36376,4.18655 -1.375,6.46875 -0.01124,2.2822 0.4772,4.44715 1.34375,6.40625 0.86655,1.9591 2.08631,3.7148 3.5,5.1875 1.41369,1.4726 3.016301,2.68535 4.78125,3.53125 1.764948,0.846 3.698872,1.3235 5.8125,1.3125 2.113627,-0.0106 4.21101,-0.5271 6.125,-1.4375 1.91399,-0.9104 3.635379,-2.20985 5,-3.71875 1.364621,-1.5089 2.382592,-3.22655 3.03125,-5.09375 0.648657,-1.8671 0.94897,-3.8805 0.96875,-6.1875 0.01978,-2.3071 -0.231995,-4.69865 -0.78125,-7.09375 -0.549256,-2.3951 -1.429463,-4.7853 -2.65625,-6.8125 -0.294263,-0.486254 -0.601085,-0.935948 -0.9375,-1.375 0.92178,-1.501436 1.506116,-3.240631 1.6875,-5.09375 C 44.558915,6.4728959 41.451119,2.2701044 35.8125,2.2701044 z"
       id="path3614" />
    <path
       style="fill:none;stroke:#000000;stroke-width:0.27656284;stroke-linecap:butt;stroke-linejoin:miter;stroke-miterlimit:4;stroke-opacity:1;stroke-dasharray:none"
       d="m 39.364408,18.208705 c 0,0 -2.313709,0.989104 -3.693842,0.989104 -1.335814,0 -3.324456,-1.766281 -3.324456,-1.766281"
       id="path3662"
       sodipodi:nodetypes="csc" />
    <g
       id="g3691"
       transform="matrix(0.74163374,0,0,0.84511703,10.961066,-832.60582)">
      <path
         sodipodi:nodetypes="csccccc"
         id="path3666"
         transform="translate(0,988.36218)"
         d="M 34.878571,9.6352041 C 33.029749,9.9908281 33.039534,12.038761 33.579086,12.831201 34.2193,13.771483 35.006694,13.907293 37.6875,14.09375 38.166481,13.981695 38.671108,13.493526 39,13.1875 l 0.96875,0.34375 c 0,0 -0.166637,-1.43731 -0.59375,-1.96875 -0.89899,-0.789714 -3.991536,-1.9502109 -4.496429,-1.9272959 z"
         style="fill:url(#linearGradient4986);fill-opacity:1;stroke:none" />
      <path
         sodipodi:nodetypes="cccc"
         id="path3664"
         d="m 35.134693,998.0928 c 0,0 3.217482,0.92603 4.244899,1.82856 0.427113,0.53144 0.587755,1.95914 0.587755,1.95914 l -4.636735,-1.5673"
         style="fill:none;stroke:none" />
    </g>
    <path
       transform="matrix(1.1421162,0,0,1.6227235,0.32655764,-5.8916516)"
       d="m 30.530613,9.7306118 a 0.84897959,0.65306121 0 1 1 -1.69796,0 0.84897959,0.65306121 0 1 1 1.69796,0 z"
       sodipodi:ry="0.65306121"
       sodipodi:rx="0.84897959"
       sodipodi:cy="9.7306118"
       sodipodi:cx="29.681633"
       id="path3713"
       style="fill:#ffffff;stroke:none"
       sodipodi:type="arc" />
    <path
       sodipodi:type="arc"
       style="fill:#000000;stroke:none"
       id="path3698"
       sodipodi:cx="29.681633"
       sodipodi:cy="9.7306118"
       sodipodi:rx="0.84897959"
       sodipodi:ry="0.65306121"
       d="m 30.530613,9.7306118 a 0.84897959,0.65306121 0 1 1 -1.69796,0 0.84897959,0.65306121 0 1 1 1.69796,0 z"
       transform="matrix(0.76141079,0,0,1.0818157,11.626516,-0.6282829)" />
    <g
       id="g4998"
       transform="translate(-1.307324,0.5079624)">
      <path
         transform="matrix(1.1421162,0,0,1.6227235,7.9577882,-6.3941076)"
         d="m 30.530613,9.7306118 c 0,0.3606762 -0.380102,0.6530612 -0.84898,0.6530612 -0.468878,0 -0.84898,-0.292385 -0.84898,-0.6530612 0,-0.3606757 0.380102,-0.6530612 0.84898,-0.6530612 0.468878,0 0.84898,0.2923855 0.84898,0.6530612 z"
         sodipodi:ry="0.65306121"
         sodipodi:rx="0.84897959"
         sodipodi:cy="9.7306118"
         sodipodi:cx="29.681633"
         id="path3715"
         style="fill:#ffffff;stroke:none"
         sodipodi:type="arc" />
      <path
         sodipodi:type="arc"
         style="fill:#000000;stroke:none"
         id="path3717"
         sodipodi:cx="29.681633"
         sodipodi:cy="9.7306118"
         sodipodi:rx="0.84897959"
         sodipodi:ry="0.65306121"
         d="m 30.530613,9.7306118 c 0,0.3606762 -0.380102,0.6530612 -0.84898,0.6530612 -0.468878,0 -0.84898,-0.292385 -0.84898,-0.6530612 0,-0.3606757 0.380102,-0.6530612 0.84898,-0.6530612 0.468878,0 0.84898,0.2923855 0.84898,0.6530612 z"
         transform="matrix(0.76141079,0,0,1.0818157,19.257746,-1.1307389)" />
    </g>
    <path
       style="fill:none;stroke:#000000;stroke-width:1px;stroke-linecap:butt;stroke-linejoin:miter;stroke-opacity:1"
       d="m 31.886186,7.9394218 c 0.230892,-0.5079624 2.88615,-0.8312112 2.88615,-0.8312112"
       id="path5016"
       sodipodi:nodetypes="cc" />
    <path
       sodipodi:nodetypes="cc"
       id="path5018"
       d="M 42.263412,8.2412223 C 42.03252,7.7332599 39.377262,7.5732764 39.377262,7.5732764"
       style="fill:none;stroke:#000000;stroke-width:1px;stroke-linecap:butt;stroke-linejoin:miter;stroke-opacity:1" />
  </g>
  <g
     inkscape:label="egg_front"
     inkscape:groupmode="layer"
     id="layer1"
     transform="translate(0,-988.36218)"
     style="display:inline">
    <path
       sodipodi:type="arc"
       style="fill:#000000;fill-opacity:0.53448277;stroke:none;filter:url(#filter3639)"
       id="path3637"
       sodipodi:cx="31.346939"
       sodipodi:cy="55.053062"
       sodipodi:rx="20.767347"
       sodipodi:ry="4.5061226"
       d="m 52.114286,55.053062 c 0,2.488663 -9.297858,4.506123 -20.767347,4.506123 -11.469489,0 -20.767347,-2.01746 -20.767347,-4.506123 0,-2.488662 9.297858,-4.506122 20.767347,-4.506122 11.469489,0 20.767347,2.01746 20.767347,4.506122 z"
       transform="translate(1.1755102,989.92953)" />
    <path
       style="fill:url(#radialGradient3623);fill-opacity:1;stroke:#000000;stroke-width:0.67747569;stroke-linecap:butt;stroke-linejoin:miter;stroke-miterlimit:4;stroke-opacity:1;stroke-dasharray:none"
       d="m 40.228571,33.175512 c 0,11.974436 -7.221921,21.681631 -16.130611,21.681631 -8.908691,0 -16.1306119,-9.707197 -16.1306119,-21.681633 0,-3.037807 0.4647967,-5.929697 1.3040159,-8.554194 1.176139,2.532017 3.578115,2.623366 3.578115,2.623366 0,0 4.481161,-7.484169 4.481161,-7.484169 3.088935,2.68253 8.012454,3.646904 8.012454,3.646904 0,0 3.037388,-3.751881 3.037388,-3.751881 3.876728,3.99834 4.138035,10.121074 4.138035,10.121074 0,0 2.320005,-3.927273 2.320005,-3.927273 0,0 2.488495,0.13125 4.100873,-1.181461 0.829857,2.612125 1.289176,5.487782 1.289176,8.507636 z"
       id="path3612"
       sodipodi:nodetypes="csscccsccccc"
       transform="matrix(1.1586251,0,0,1.0577723,4.0794992,988.27412)" />
    <path
       transform="matrix(0.85665838,-0.51588411,0.51588411,0.85665838,-17.507661,1011.2203)"
       style="fill:url(#linearGradient3635);fill-opacity:1;stroke:none"
       d="m 46.58802,48.495511 c 0.281052,4.083581 -7.807992,7.525165 -13.388007,7.866981 -6.912751,0.423455 -13.256604,-4.165878 -13.256604,-7.916906 0,-3.751028 6.792647,-5.735382 12.383121,-5.735382 5.590475,0 13.980438,1.701725 14.26149,5.785307 z"
       id="path3627"
       sodipodi:nodetypes="csssz" />
    <path
       style="fill:none;stroke:#000000;stroke-width:0.25;stroke-linecap:round;stroke-linejoin:miter;stroke-miterlimit:4;stroke-opacity:1;stroke-dasharray:none"
       d="m 39.691976,1002.2276 c 0,0 -0.912404,-0.097 -1.290936,-0.2315 -0.737993,-0.2628 -1.397655,-0.5271 -1.397655,-0.5271"
       id="path2877"
       sodipodi:nodetypes="csc" />
    <path
       style="fill:#ffff00;fill-opacity:1;stroke:#000000;stroke-width:0.5;stroke-linecap:butt;stroke-linejoin:miter;stroke-miterlimit:4;stroke-opacity:1;stroke-dasharray:none;display:inline"
       d="m 23.436218,1007.6074 c 6.372619,-0.1847 9.838921,10.0402 8.312111,10.2516 -3.824006,0.5295 -11.914027,-3.4172 -11.914027,-3.4172"
       id="path4211"
       sodipodi:nodetypes="csc" />
  </g>
  <g
     id="g4197"
     transform="matrix(3.7751653,0,0,3.7751653,160.20423,-49.173796)"
     style="fill:#a02c2c"
     inkscape:path-effect="#path-effect2871">
    <path
       style="font-style:normal;font-variant:normal;font-weight:normal;font-stretch:normal;letter-spacing:normal;word-spacing:normal;text-anchor:start;fill:#a02c2c;stroke:#000000;stroke-width:0;stroke-linecap:butt;stroke-linejoin:miter;stroke-miterlimit:10.43299961;stroke-opacity:1;stroke-dasharray:none;stroke-dashoffset:0"
       d="m -34.58865,22.375894 -2.372245,1.06e-4 0,0.140771 0.109657,-5e-6 c 0.350903,-1.4e-5 0.359126,0.05027 0.359126,0.213888 l 0,2.385829 c 0,0.164541 -0.0082,0.214817 -0.359126,0.214802 l -0.109657,-5e-6 0,0.140771 c 0.159917,-0.01371 0.514474,-0.01369 0.691753,-0.01368 0.187331,8e-6 0.601285,2.7e-5 0.76577,0.01375 l 0,-0.140777 -0.150778,-7e-6 c -0.432231,-1.8e-5 -0.432231,-0.05944 -0.432231,-0.218494 l 0,-2.414195 c 0,-0.149916 0.0091,-0.181911 0.222969,-0.181919 l 0.468783,-1.9e-5 c 0.650632,-2.6e-5 0.746582,0.268732 0.819687,0.883961 l 0.113311,-1e-6 c -0.04234,-0.341593 -0.08468,-0.683184 -0.127019,-1.024774 z"
       id="path4112"
       inkscape:original-d="m -34.587769,22.375689 -2.373485,0 0,0.1408 0.109714,0 c 0.351086,0 0.359314,0.05029 0.359314,0.213943 l 0,2.386285 c 0,0.164572 -0.0082,0.214858 -0.359314,0.214858 l -0.109714,0 0,0.1408 c 0.16,-0.01372 0.514743,-0.01372 0.692114,-0.01372 0.187429,0 0.6016,0 0.766171,0.01372 l 0,-0.1408 -0.150857,0 c -0.432457,0 -0.432457,-0.05943 -0.432457,-0.218515 l 0,-2.414628 c 0,-0.149943 0.0091,-0.181943 0.223086,-0.181943 l 0.469028,0 c 0.650972,0 0.746972,0.2688 0.820115,0.884114 l 0.113371,0 z" />
    <path
       style="font-style:normal;font-variant:normal;font-weight:normal;font-stretch:normal;letter-spacing:normal;word-spacing:normal;text-anchor:start;fill:#a02c2c;stroke:#000000;stroke-width:0;stroke-linecap:butt;stroke-linejoin:miter;stroke-miterlimit:10.43299961;stroke-opacity:1;stroke-dasharray:none;stroke-dashoffset:0"
       d="m -30.62434,23.983003 0.0064,0 0.0064,0 0.01189,0 0.0128,-9.14e-4 0.0064,0 0.0064,0 0.0064,-9.14e-4 0.0064,-9.15e-4 0.0064,-9.14e-4 0.0064,-9.14e-4 0.0064,-0.0018 0.0055,-9.14e-4 0.0055,-0.0018 0.0064,-0.0018 0.0055,-0.0027 0.0046,-0.0027 0.0055,-0.0027 0.0046,-0.0027 0.0046,-0.0037 0.0046,-0.0037 0.0037,-0.0046 0.0018,-0.0018 0.0018,-0.0027 0.0018,-0.0027 9.14e-4,-0.0018 0.0018,-0.0027 0.0018,-0.0027 9.14e-4,-0.0027 9.14e-4,-0.0037 0.0018,-0.0027 9.14e-4,-0.0037 9.14e-4,-0.0027 0,-0.0037 9.15e-4,-0.0037 9.14e-4,-0.0037 0,-0.0037 9.14e-4,-0.0037 0,-0.0046 0,-0.0046 c 0,-0.09051 -0.08686,-0.09051 -0.150857,-0.09051 l -1.935543,0 0,-1.339428 c 0,-0.06309 0,-0.149943 -0.09051,-0.149943 -0.09143,0 -0.09143,0.09143 -0.09143,0.154514 l 0,2.850743 c 0,0.064 0,0.155429 0.09143,0.155429 0.09051,0 0.09051,-0.08686 0.09051,-0.149943 l 0,-1.339429 z"
       id="path4114"
       inkscape:original-d="m -30.62434,23.983003 0.0064,0 0.0064,0 0.01189,0 0.0128,-9.14e-4 0.0064,0 0.0064,0 0.0064,-9.14e-4 0.0064,-9.15e-4 0.0064,-9.14e-4 0.0064,-9.14e-4 0.0064,-0.0018 0.0055,-9.14e-4 0.0055,-0.0018 0.0064,-0.0018 0.0055,-0.0027 0.0046,-0.0027 0.0055,-0.0027 0.0046,-0.0027 0.0046,-0.0037 0.0046,-0.0037 0.0037,-0.0046 0.0018,-0.0018 0.0018,-0.0027 0.0018,-0.0027 9.14e-4,-0.0018 0.0018,-0.0027 0.0018,-0.0027 9.14e-4,-0.0027 9.14e-4,-0.0037 0.0018,-0.0027 9.14e-4,-0.0037 9.14e-4,-0.0027 0,-0.0037 9.15e-4,-0.0037 9.14e-4,-0.0037 0,-0.0037 9.14e-4,-0.0037 0,-0.0046 0,-0.0046 c 0,-0.09051 -0.08686,-0.09051 -0.150857,-0.09051 l -1.935543,0 0,-1.339428 c 0,-0.06309 0,-0.149943 -0.09051,-0.149943 -0.09143,0 -0.09143,0.09143 -0.09143,0.154514 l 0,2.850743 c 0,0.064 0,0.155429 0.09143,0.155429 0.09051,0 0.09051,-0.08686 0.09051,-0.149943 l 0,-1.339429 z" />
  </g>
  <path
     style="fill:#ffff00;fill-opacity:1;stroke:#000000;stroke-width:0.75;stroke-linecap:round;stroke-linejoin:round;stroke-miterlimit:7.9000001;stroke-opacity:1;stroke-dasharray:none"
     d="m 35.142614,2.3114079 c 2.253062,0.032653 5.876193,-1.0994457 5.876193,-1.0994457 l -2.185997,1.6106899 4.961788,-1.063909 c 0,0 -1.302373,0.8836449 -2.427977,2.1582671 1.545679,-0.5219264 1.301966,0.054667 4.197526,-0.3130052 -3.474753,1.8556394 -3.010695,1.9951184 -2.479643,2.7339728"
     id="path3217"
     sodipodi:nodetypes="ccccccs" />
</svg>
